<svg xmlns="http://www.w3.org/2000/svg" width="576" height="384" fill="none" viewBox="0 0 576 384"><rect width="64" height="63.896" stroke="#fff" stroke-width="2" transform="matrix(1 1.74562e-07 1.7513e-07 -1 65.0001 64.8962)"/><rect width="64" height="63.896" stroke="#fff" stroke-width="2" transform="matrix(1 1.74562e-07 1.7513e-07 -1 1.00006 64.8965)"/><rect width="64" height="63.896" stroke="#fff" stroke-width="2" transform="matrix(1 1.74562e-07 1.7513e-07 -1 193 64.8965)"/><rect width="64" height="63.896" stroke="#fff" stroke-width="2" transform="matrix(1 1.74562e-07 1.7513e-07 -1 65.0001 192.688)"/><rect width="64" height="63.896" stroke="#fff" stroke-width="2" transform="matrix(1 1.74562e-07 1.7513e-07 -1 1.00006 192.688)"/><rect width="64" height="63.896" stroke="#fff" stroke-width="2" transform="matrix(1 1.74562e-07 1.7513e-07 -1 321 192.688)"/><rect width="64" height="63.896" stroke="#fff" stroke-width="2" transform="matrix(1 1.74562e-07 1.7513e-07 -1 193 192.688)"/><rect width="64" height="63.896" stroke="#fff" stroke-width="2" transform="matrix(1 1.74562e-07 1.7513e-07 -1 129 192.688)"/><rect width="64" height="63.896" stroke="#fff" stroke-width="2" transform="matrix(1 1.74562e-07 1.7513e-07 -1 385 192.688)"/><rect width="64" height="63.896" stroke="#fff" stroke-width="2" transform="matrix(1 1.74562e-07 1.7513e-07 -1 257 192.688)"/><rect width="64" height="63.896" stroke="#fff" stroke-width="2" transform="matrix(1 1.74562e-07 1.7513e-07 -1 513 192.688)"/><rect width="64" height="63.896" stroke="#fff" stroke-width="2" transform="matrix(1 1.74562e-07 1.7513e-07 -1 65 320.481)"/><rect width="64" height="63.896" stroke="#fff" stroke-width="2" transform="matrix(1 1.74562e-07 1.7513e-07 -1 1 320.481)"/><rect width="64" height="63.896" stroke="#fff" stroke-width="2" transform="matrix(1 1.74562e-07 1.7513e-07 -1 321 320.481)"/><rect width="64" height="63.896" stroke="#fff" stroke-width="2" transform="matrix(1 1.74562e-07 1.7513e-07 -1 193 320.481)"/><rect width="64" height="63.896" stroke="#fff" stroke-width="2" transform="matrix(1 1.74562e-07 1.7513e-07 -1 449 320.481)"/><rect width="64" height="63.896" stroke="#fff" stroke-width="2" transform="matrix(1 1.74562e-07 1.7513e-07 -1 129 320.481)"/><rect width="64" height="63.896" stroke="#fff" stroke-width="2" transform="matrix(1 1.74562e-07 1.7513e-07 -1 385 320.481)"/><rect width="64" height="63.896" stroke="#fff" stroke-width="2" transform="matrix(1 1.74562e-07 1.7513e-07 -1 257 320.481)"/><rect width="64" height="63.896" stroke="#fff" stroke-width="2" transform="matrix(1 1.74562e-07 1.7513e-07 -1 65.0001 128.792)"/><rect width="64" height="63.896" stroke="#fff" stroke-width="2" transform="matrix(1 1.74562e-07 1.7513e-07 -1 1.00006 128.792)"/><rect width="64" height="63.896" stroke="#fff" stroke-width="2" transform="matrix(1 1.74562e-07 1.7513e-07 -1 321 128.792)"/><rect width="64" height="63.896" stroke="#fff" stroke-width="2" transform="matrix(1 1.74562e-07 1.7513e-07 -1 129 128.792)"/><rect width="64" height="63.896" stroke="#fff" stroke-width="2" transform="matrix(1 1.74562e-07 1.7513e-07 -1 65 256.585)"/><rect width="64" height="63.896" stroke="#fff" stroke-width="2" transform="matrix(1 1.74562e-07 1.7513e-07 -1 1 256.585)"/><rect width="64" height="63.896" stroke="#fff" stroke-width="2" transform="matrix(1 1.74562e-07 1.7513e-07 -1 321 256.585)"/><rect width="64" height="63.896" stroke="#fff" stroke-width="2" transform="matrix(1 1.74562e-07 1.7513e-07 -1 193 256.585)"/><rect width="64" height="63.896" stroke="#fff" stroke-width="2" transform="matrix(1 1.74562e-07 1.7513e-07 -1 129 256.585)"/><rect width="64" height="63.896" stroke="#fff" stroke-width="2" transform="matrix(1 1.74562e-07 1.7513e-07 -1 257 256.585)"/><rect width="64" height="63.896" stroke="#fff" stroke-width="2" transform="matrix(1 1.74562e-07 1.7513e-07 -1 65 384.377)"/><rect width="64" height="63.896" stroke="#fff" stroke-width="2" transform="matrix(1 1.74562e-07 1.7513e-07 -1 1 384.377)"/><rect width="64" height="63.896" stroke="#fff" stroke-width="2" transform="matrix(1 1.74562e-07 1.7513e-07 -1 321 384.377)"/><rect width="64" height="63.896" stroke="#fff" stroke-width="2" transform="matrix(1 1.74562e-07 1.7513e-07 -1 193 384.377)"/><rect width="64" height="63.896" stroke="#fff" stroke-width="2" transform="matrix(1 1.74562e-07 1.7513e-07 -1 449 384.377)"/><rect width="64" height="63.896" stroke="#fff" stroke-width="2" transform="matrix(1 1.74562e-07 1.7513e-07 -1 129 384.377)"/><rect width="64" height="63.896" stroke="#fff" stroke-width="2" transform="matrix(1 1.74562e-07 1.7513e-07 -1 385 384.377)"/><rect width="64" height="63.896" stroke="#fff" stroke-width="2" transform="matrix(1 1.74562e-07 1.7513e-07 -1 257 384.377)"/><rect width="64" height="63.896" stroke="#fff" stroke-width="2" transform="matrix(1 1.74562e-07 1.7513e-07 -1 513 384.377)"/></svg>