<svg xmlns="http://www.w3.org/2000/svg" xmlns:xlink="http://www.w3.org/1999/xlink" id="Capa_1" x="0" y="0" version="1.1" viewBox="0 0 1794 450" xml:space="preserve" style="enable-background:new 0 0 1794 450"><style type="text/css">.st0{fill:none;stroke:#e1e1e2}</style><rect width="64" height="64" x="385" y="1" class="st0"/><rect width="64" height="64" x="321" y="1" class="st0"/><rect width="64" height="64" x="897" y="1" class="st0"/><rect width="64" height="64" x="641" y="1" class="st0"/><rect width="64" height="64" x="1153" y="1" class="st0"/><rect width="64" height="64" x="513" y="1" class="st0"/><rect width="64" height="64" x="1025" y="1" class="st0"/><rect width="64" height="64" x="769" y="1" class="st0"/><rect width="64" height="64" x="1281" y="1" class="st0"/><rect width="64" height="64" x="449" y="1" class="st0"/><rect width="64" height="64" x="961" y="1" class="st0"/><rect width="64" height="64" x="705" y="1" class="st0"/><rect width="64" height="64" x="1217" y="1" class="st0"/><rect width="64" height="64" x="577" y="1" class="st0"/><rect width="64" height="64" x="1089" y="1" class="st0"/><rect width="64" height="64" x="833" y="1" class="st0"/><rect width="64" height="64" x="1345" y="1" class="st0"/><rect width="64" height="64" x="1409" y="1" class="st0"/><rect width="64" height="64" x="385" y="65" class="st0"/><rect width="64" height="64" x="321" y="65" class="st0"/><rect width="64" height="64" x="897" y="65" class="st0"/><rect width="64" height="64" x="641" y="65" class="st0"/><rect width="64" height="64" x="1153" y="65" class="st0"/><rect width="64" height="64" x="513" y="65" class="st0"/><rect width="64" height="64" x="1025" y="65" class="st0"/><rect width="64" height="64" x="769" y="65" class="st0"/><rect width="64" height="64" x="1281" y="65" class="st0"/><rect width="64" height="64" x="449" y="65" class="st0"/><rect width="64" height="64" x="961" y="65" class="st0"/><rect width="64" height="64" x="705" y="65" class="st0"/><rect width="64" height="64" x="1217" y="65" class="st0"/><rect width="64" height="64" x="577" y="65" class="st0"/><rect width="64" height="64" x="1089" y="65" class="st0"/><rect width="64" height="64" x="833" y="65" class="st0"/><rect width="64" height="64" x="1345" y="65" class="st0"/><rect width="64" height="64" x="1409" y="65" class="st0"/><rect width="64" height="64" x="65" y="65" class="st0"/><rect width="64" height="64" x="1" y="65" class="st0"/><rect width="64" height="64" x="193" y="65" class="st0"/><rect width="64" height="64" x="129" y="65" class="st0"/><rect width="64" height="64" x="257" y="65" class="st0"/><rect width="64" height="64" x="65" y="1" class="st0"/><rect width="64" height="64" x="1" y="1" class="st0"/><rect width="64" height="64" x="193" y="1" class="st0"/><rect width="64" height="64" x="129" y="1" class="st0"/><rect width="64" height="64" x="257" y="1" class="st0"/><rect width="64" height="64" x="1537" y="65" class="st0"/><rect width="64" height="64" x="1473" y="65" class="st0"/><rect width="64" height="64" x="1665" y="65" class="st0"/><rect width="64" height="64" x="1601" y="65" class="st0"/><rect width="64" height="64" x="1729" y="65" class="st0"/><rect width="64" height="64" x="1537" y="1" class="st0"/><rect width="64" height="64" x="1473" y="1" class="st0"/><rect width="64" height="64" x="1665" y="1" class="st0"/><rect width="64" height="64" x="1601" y="1" class="st0"/><rect width="64" height="64" x="1729" y="1" class="st0"/><g><rect width="64" height="64" x="641" y="193.8" class="st0"/><rect width="64" height="64" x="513" y="193.8" class="st0"/><rect width="64" height="64" x="449" y="193.8" class="st0"/><rect width="64" height="64" x="705" y="193.8" class="st0"/><rect width="64" height="64" x="577" y="193.8" class="st0"/><rect width="64" height="64" x="385" y="257.8" class="st0"/><rect width="64" height="64" x="449" y="321.8" class="st0"/><rect width="64" height="64" x="513" y="385.8" class="st0"/><rect width="64" height="64" x="769" y="321.8" class="st0"/><rect width="64" height="64" x="321" y="257.8" class="st0"/><rect width="64" height="64" x="641" y="257.8" class="st0"/><rect width="64" height="64" x="513" y="257.8" class="st0"/><rect width="64" height="64" x="385" y="129.8" class="st0"/><rect width="64" height="64" x="321" y="129.8" class="st0"/><rect width="64" height="64" x="641" y="129.8" class="st0"/><rect width="64" height="64" x="513" y="129.8" class="st0"/><rect width="64" height="64" x="769" y="129.8" class="st0"/><rect width="64" height="64" x="449" y="129.8" class="st0"/><rect width="64" height="64" x="705" y="129.8" class="st0"/><rect width="64" height="64" x="577" y="129.8" class="st0"/><rect width="64" height="64" x="833" y="129.8" class="st0"/><rect width="64" height="64" x="65" y="129.8" class="st0"/><rect width="64" height="64" x="1" y="129.8" class="st0"/><rect width="64" height="64" x="193" y="129.8" class="st0"/><rect width="64" height="64" x="129" y="129.8" class="st0"/><rect width="64" height="64" x="257" y="129.8" class="st0"/><rect width="64" height="64" x="65" y="257.8" class="st0"/><rect width="64" height="64" x="1" y="257.8" class="st0"/><rect width="64" height="64" x="193" y="257.8" class="st0"/><rect width="64" height="64" x="129" y="257.8" class="st0"/><rect width="64" height="64" x="257" y="257.8" class="st0"/><rect width="64" height="64" x="65" y="193.8" class="st0"/><rect width="64" height="64" x="1" y="193.8" class="st0"/><rect width="64" height="64" x="193" y="193.8" class="st0"/><rect width="64" height="64" x="129" y="193.8" class="st0"/><rect width="64" height="64" x="257" y="193.8" class="st0"/></g><g><rect width="64" height="64" x="897" y="193.8" class="st0"/><rect width="64" height="64" x="1153" y="193.8" class="st0"/><rect width="64" height="64" x="1281" y="193.8" class="st0"/><rect width="64" height="64" x="961" y="193.8" class="st0"/><rect width="64" height="64" x="1089" y="193.8" class="st0"/><rect width="64" height="64" x="1409" y="193.8" class="st0"/><rect width="64" height="64" x="897" y="257.8" class="st0"/><rect width="64" height="64" x="1153" y="257.8" class="st0"/><rect width="64" height="64" x="1345" y="257.8" class="st0"/><rect width="64" height="64" x="1409" y="257.8" class="st0"/><rect width="64" height="64" x="897" y="129.8" class="st0"/><rect width="64" height="64" x="1153" y="129.8" class="st0"/><rect width="64" height="64" x="1025" y="129.8" class="st0"/><rect width="64" height="64" x="1281" y="129.8" class="st0"/><rect width="64" height="64" x="961" y="129.8" class="st0"/><rect width="64" height="64" x="1217" y="129.8" class="st0"/><rect width="64" height="64" x="1089" y="129.8" class="st0"/><rect width="64" height="64" x="1345" y="129.8" class="st0"/><rect width="64" height="64" x="1409" y="129.8" class="st0"/><rect width="64" height="64" x="1537" y="129.8" class="st0"/><rect width="64" height="64" x="1473" y="129.8" class="st0"/><rect width="64" height="64" x="1665" y="129.8" class="st0"/><rect width="64" height="64" x="1601" y="129.8" class="st0"/><rect width="64" height="64" x="1729" y="129.8" class="st0"/><rect width="64" height="64" x="1537" y="257.8" class="st0"/><rect width="64" height="64" x="1473" y="257.8" class="st0"/><rect width="64" height="64" x="1665" y="257.8" class="st0"/><rect width="64" height="64" x="1601" y="257.8" class="st0"/><rect width="64" height="64" x="1729" y="257.8" class="st0"/><rect width="64" height="64" x="1537" y="193.8" class="st0"/><rect width="64" height="64" x="1473" y="193.8" class="st0"/><rect width="64" height="64" x="1665" y="193.8" class="st0"/><rect width="64" height="64" x="1601" y="193.8" class="st0"/><rect width="64" height="64" x="1729" y="193.8" class="st0"/></g></svg>