<svg xmlns="http://www.w3.org/2000/svg" width="578" height="386" fill="none" viewBox="0 0 578 386"><rect width="64" height="64" stroke="#343A3F" transform="matrix(1 0 0 -1 65 65)"/><rect width="64" height="64" stroke="#343A3F" transform="matrix(1 0 0 -1 1 65)"/><rect width="64" height="64" stroke="#343A3F" transform="matrix(1 0 0 -1 193 65)"/><rect width="64" height="64" stroke="#343A3F" transform="matrix(1 0 0 -1 449 65)"/><rect width="64" height="64" stroke="#343A3F" transform="matrix(1 0 0 -1 65 193)"/><rect width="64" height="64" stroke="#343A3F" transform="matrix(1 0 0 -1 1 193)"/><rect width="64" height="64" stroke="#343A3F" transform="matrix(1 0 0 -1 321 193)"/><rect width="64" height="64" stroke="#343A3F" transform="matrix(1 0 0 -1 193 193)"/><rect width="64" height="64" stroke="#343A3F" transform="matrix(1 0 0 -1 129 193)"/><rect width="64" height="64" stroke="#343A3F" transform="matrix(1 0 0 -1 385 193)"/><rect width="64" height="64" stroke="#343A3F" transform="matrix(1 0 0 -1 257 193)"/><rect width="64" height="64" stroke="#343A3F" transform="matrix(1 0 0 -1 513 193)"/><rect width="64" height="64" stroke="#343A3F" transform="matrix(1 0 0 -1 65 321)"/><rect width="64" height="64" stroke="#343A3F" transform="matrix(1 0 0 -1 1 321)"/><rect width="64" height="64" stroke="#343A3F" transform="matrix(1 0 0 -1 321 321)"/><rect width="64" height="64" stroke="#343A3F" transform="matrix(1 0 0 -1 193 321)"/><rect width="64" height="64" stroke="#343A3F" transform="matrix(1 0 0 -1 449 321)"/><rect width="64" height="64" stroke="#343A3F" transform="matrix(1 0 0 -1 129 321)"/><rect width="64" height="64" stroke="#343A3F" transform="matrix(1 0 0 -1 385 321)"/><rect width="64" height="64" stroke="#343A3F" transform="matrix(1 0 0 -1 257 321)"/><rect width="64" height="64" stroke="#343A3F" transform="matrix(1 0 0 -1 65 129)"/><rect width="64" height="64" stroke="#343A3F" transform="matrix(1 0 0 -1 1 129)"/><rect width="64" height="64" stroke="#343A3F" transform="matrix(1 0 0 -1 321 129)"/><rect width="64" height="64" stroke="#343A3F" transform="matrix(1 0 0 -1 193 129)"/><rect width="64" height="64" stroke="#343A3F" transform="matrix(1 0 0 -1 129 129)"/><rect width="64" height="64" stroke="#343A3F" transform="matrix(1 0 0 -1 65 257)"/><rect width="64" height="64" stroke="#343A3F" transform="matrix(1 0 0 -1 1 257)"/><rect width="64" height="64" stroke="#343A3F" transform="matrix(1 0 0 -1 321 257)"/><rect width="64" height="64" stroke="#343A3F" transform="matrix(1 0 0 -1 193 257)"/><rect width="64" height="64" stroke="#343A3F" transform="matrix(1 0 0 -1 129 257)"/><rect width="64" height="64" stroke="#343A3F" transform="matrix(1 0 0 -1 257 257)"/><rect width="64" height="64" stroke="#343A3F" transform="matrix(1 0 0 -1 65 385)"/><rect width="64" height="64" stroke="#343A3F" transform="matrix(1 0 0 -1 1 385)"/><rect width="64" height="64" stroke="#343A3F" transform="matrix(1 0 0 -1 321 385)"/><rect width="64" height="64" stroke="#343A3F" transform="matrix(1 0 0 -1 193 385)"/><rect width="64" height="64" stroke="#343A3F" transform="matrix(1 0 0 -1 449 385)"/><rect width="64" height="64" stroke="#343A3F" transform="matrix(1 0 0 -1 129 385)"/><rect width="64" height="64" stroke="#343A3F" transform="matrix(1 0 0 -1 385 385)"/><rect width="64" height="64" stroke="#343A3F" transform="matrix(1 0 0 -1 257 385)"/><rect width="64" height="64" stroke="#343A3F" transform="matrix(1 0 0 -1 513 385)"/></svg>