<svg xmlns="http://www.w3.org/2000/svg" width="593" height="514" fill="none" viewBox="0 0 593 514"><rect width="64" height="64" x="577" y="65" stroke="#343A3F" transform="rotate(-180 577 65)"/><rect width="64" height="64" x="641" y="65" stroke="#343A3F" transform="rotate(-180 641 65)"/><rect width="64" height="64" x="449" y="65" stroke="#343A3F" transform="rotate(-180 449 65)"/><rect width="64" height="64" x="577" y="193" stroke="#343A3F" transform="rotate(-180 577 193)"/><rect width="64" height="64" x="641" y="193" stroke="#343A3F" transform="rotate(-180 641 193)"/><rect width="64" height="64" x="321" y="193" stroke="#343A3F" transform="rotate(-180 321 193)"/><rect width="64" height="64" x="449" y="193" stroke="#343A3F" transform="rotate(-180 449 193)"/><rect width="64" height="64" x="513" y="193" stroke="#343A3F" transform="rotate(-180 513 193)"/><rect width="64" height="64" x="257" y="193" stroke="#343A3F" transform="rotate(-180 257 193)"/><rect width="64" height="64" x="385" y="193" stroke="#343A3F" transform="rotate(-180 385 193)"/><rect width="64" height="64" x="129" y="193" stroke="#343A3F" transform="rotate(-180 129 193)"/><rect width="64" height="64" x="577" y="321" stroke="#343A3F" transform="rotate(-180 577 321)"/><rect width="64" height="64" x="641" y="321" stroke="#343A3F" transform="rotate(-180 641 321)"/><rect width="64" height="64" x="321" y="321" stroke="#343A3F" transform="rotate(-180 321 321)"/><rect width="64" height="64" x="449" y="321" stroke="#343A3F" transform="rotate(-180 449 321)"/><rect width="64" height="64" x="193" y="321" stroke="#343A3F" transform="rotate(-180 193 321)"/><rect width="64" height="64" x="513" y="321" stroke="#343A3F" transform="rotate(-180 513 321)"/><rect width="64" height="64" x="257" y="321" stroke="#343A3F" transform="rotate(-180 257 321)"/><rect width="64" height="64" x="385" y="321" stroke="#343A3F" transform="rotate(-180 385 321)"/><rect width="64" height="64" x="577" y="129" stroke="#343A3F" transform="rotate(-180 577 129)"/><rect width="64" height="64" x="641" y="129" stroke="#343A3F" transform="rotate(-180 641 129)"/><rect width="64" height="64" x="321" y="129" stroke="#343A3F" transform="rotate(-180 321 129)"/><rect width="64" height="64" x="449" y="129" stroke="#343A3F" transform="rotate(-180 449 129)"/><rect width="64" height="64" x="513" y="129" stroke="#343A3F" transform="rotate(-180 513 129)"/><rect width="64" height="64" x="577" y="257" stroke="#343A3F" transform="rotate(-180 577 257)"/><rect width="64" height="64" x="641" y="257" stroke="#343A3F" transform="rotate(-180 641 257)"/><rect width="64" height="64" x="321" y="257" stroke="#343A3F" transform="rotate(-180 321 257)"/><rect width="64" height="64" x="449" y="257" stroke="#343A3F" transform="rotate(-180 449 257)"/><rect width="64" height="64" x="513" y="257" stroke="#343A3F" transform="rotate(-180 513 257)"/><rect width="64" height="64" x="385" y="257" stroke="#343A3F" transform="rotate(-180 385 257)"/><rect width="64" height="64" x="577" y="385" stroke="#343A3F" transform="rotate(-180 577 385)"/><rect width="64" height="64" x="577" y="449" stroke="#343A3F" transform="rotate(-180 577 449)"/><rect width="64" height="64" x="577" y="513" stroke="#343A3F" transform="rotate(-180 577 513)"/><rect width="64" height="64" x="641" y="385" stroke="#343A3F" transform="rotate(-180 641 385)"/><rect width="64" height="64" x="321" y="385" stroke="#343A3F" transform="rotate(-180 321 385)"/><rect width="64" height="64" x="321" y="449" stroke="#343A3F" transform="rotate(-180 321 449)"/><rect width="64" height="64" x="321" y="513" stroke="#343A3F" transform="rotate(-180 321 513)"/><rect width="64" height="64" x="449" y="385" stroke="#343A3F" transform="rotate(-180 449 385)"/><rect width="64" height="64" x="449" y="449" stroke="#343A3F" transform="rotate(-180 449 449)"/><rect width="64" height="64" x="449" y="513" stroke="#343A3F" transform="rotate(-180 449 513)"/><rect width="64" height="64" x="193" y="385" stroke="#343A3F" transform="rotate(-180 193 385)"/><rect width="64" height="64" x="193" y="449" stroke="#343A3F" transform="rotate(-180 193 449)"/><rect width="64" height="64" x="193" y="513" stroke="#343A3F" transform="rotate(-180 193 513)"/><rect width="64" height="64" x="513" y="385" stroke="#343A3F" transform="rotate(-180 513 385)"/><rect width="64" height="64" x="513" y="449" stroke="#343A3F" transform="rotate(-180 513 449)"/><rect width="64" height="64" x="513" y="513" stroke="#343A3F" transform="rotate(-180 513 513)"/><rect width="64" height="64" x="257" y="385" stroke="#343A3F" transform="rotate(-180 257 385)"/><rect width="64" height="64" x="257" y="449" stroke="#343A3F" transform="rotate(-180 257 449)"/><rect width="64" height="64" x="257" y="513" stroke="#343A3F" transform="rotate(-180 257 513)"/><rect width="64" height="64" x="385" y="385" stroke="#343A3F" transform="rotate(-180 385 385)"/><rect width="64" height="64" x="385" y="449" stroke="#343A3F" transform="rotate(-180 385 449)"/><rect width="64" height="64" x="385" y="513" stroke="#343A3F" transform="rotate(-180 385 513)"/><rect width="64" height="64" x="129" y="385" stroke="#343A3F" transform="rotate(-180 129 385)"/><rect width="64" height="64" x="129" y="449" stroke="#343A3F" transform="rotate(-180 129 449)"/><rect width="64" height="64" x="641" y="449" stroke="#343A3F" transform="rotate(-180 641 449)"/><rect width="64" height="64" x="641" y="513" stroke="#343A3F" transform="rotate(-180 641 513)"/><rect width="64" height="64" x="65" y="449" stroke="#343A3F" transform="rotate(-180 65 449)"/><rect width="64" height="64" x="129" y="513" stroke="#343A3F" transform="rotate(-180 129 513)"/></svg>