<svg xmlns="http://www.w3.org/2000/svg" width="578" height="386" fill="none" viewBox="0 0 578 386"><rect width="64" height="64" x="65" y="321" stroke="#E1E1E2"/><rect width="64" height="64" x="1" y="321" stroke="#E1E1E2"/><rect width="64" height="64" x="193" y="321" stroke="#E1E1E2"/><rect width="64" height="64" x="449" y="321" stroke="#E1E1E2"/><rect width="64" height="64" x="65" y="193" stroke="#E1E1E2"/><rect width="64" height="64" x="1" y="193" stroke="#E1E1E2"/><rect width="64" height="64" x="321" y="193" stroke="#E1E1E2"/><rect width="64" height="64" x="193" y="193" stroke="#E1E1E2"/><rect width="64" height="64" x="129" y="193" stroke="#E1E1E2"/><rect width="64" height="64" x="385" y="193" stroke="#E1E1E2"/><rect width="64" height="64" x="257" y="193" stroke="#E1E1E2"/><rect width="64" height="64" x="513" y="193" stroke="#E1E1E2"/><rect width="64" height="64" x="65" y="65" stroke="#E1E1E2"/><rect width="64" height="64" x="1" y="65" stroke="#E1E1E2"/><rect width="64" height="64" x="321" y="65" stroke="#E1E1E2"/><rect width="64" height="64" x="193" y="65" stroke="#E1E1E2"/><rect width="64" height="64" x="449" y="65" stroke="#E1E1E2"/><rect width="64" height="64" x="129" y="65" stroke="#E1E1E2"/><rect width="64" height="64" x="385" y="65" stroke="#E1E1E2"/><rect width="64" height="64" x="257" y="65" stroke="#E1E1E2"/><rect width="64" height="64" x="65" y="257" stroke="#E1E1E2"/><rect width="64" height="64" x="1" y="257" stroke="#E1E1E2"/><rect width="64" height="64" x="321" y="257" stroke="#E1E1E2"/><rect width="64" height="64" x="193" y="257" stroke="#E1E1E2"/><rect width="64" height="64" x="129" y="257" stroke="#E1E1E2"/><rect width="64" height="64" x="65" y="129" stroke="#E1E1E2"/><rect width="64" height="64" x="1" y="129" stroke="#E1E1E2"/><rect width="64" height="64" x="321" y="129" stroke="#E1E1E2"/><rect width="64" height="64" x="193" y="129" stroke="#E1E1E2"/><rect width="64" height="64" x="129" y="129" stroke="#E1E1E2"/><rect width="64" height="64" x="257" y="129" stroke="#E1E1E2"/><rect width="64" height="64" x="65" y="1" stroke="#E1E1E2"/><rect width="64" height="64" x="1" y="1" stroke="#E1E1E2"/><rect width="64" height="64" x="321" y="1" stroke="#E1E1E2"/><rect width="64" height="64" x="193" y="1" stroke="#E1E1E2"/><rect width="64" height="64" x="449" y="1" stroke="#E1E1E2"/><rect width="64" height="64" x="129" y="1" stroke="#E1E1E2"/><rect width="64" height="64" x="385" y="1" stroke="#E1E1E2"/><rect width="64" height="64" x="257" y="1" stroke="#E1E1E2"/><rect width="64" height="64" x="513" y="1" stroke="#E1E1E2"/></svg>